<svg xmlns="http://www.w3.org/2000/svg" viewBox="0 0 1200 760" role="img" aria-label="Collage visual de Rumicruz basado en el documento de investigación"><defs><linearGradient id="bg" x1="0" y1="0" x2="1" y2="1"><stop stop-color="#244c34"/><stop offset=".55" stop-color="#a8552c"/><stop offset="1" stop-color="#d5a73d"/></linearGradient><linearGradient id="card" x1="0" y1="0" x2="1" y2="1"><stop stop-color="#fff6e5"/><stop offset="1" stop-color="#ead2ad"/></linearGradient><filter id="s"><feDropShadow dx="0" dy="22" stdDeviation="18" flood-opacity=".24"/></filter><pattern id="weave" width="40" height="40" patternUnits="userSpaceOnUse"><path d="M0 20H40M20 0V40" stroke="#ffffff" stroke-opacity=".09" stroke-width="4"/></pattern></defs><rect width="1200" height="760" rx="42" fill="url(#bg)"/><rect width="1200" height="760" rx="42" fill="url(#weave)"/><circle cx="1015" cy="110" r="125" fill="#fff" opacity=".10"/><circle cx="205" cy="620" r="160" fill="#111" opacity=".13"/><text x="70" y="90" fill="#fff8e9" font-family="Georgia,serif" font-size="54" font-weight="700">Rumicruz</text><text x="72" y="132" fill="#fff8e9" opacity=".82" font-family="Inter,Arial" font-size="22">Patrimonio cultural · interpretación turística · comunidad</text><g filter="url(#s)"><rect x="70" y="180" width="315" height="215" rx="28" fill="url(#card)"/><text x="95" y="230" font-size="22" font-weight="800" font-family="Inter,Arial" fill="#244c34">Mapa de ubicación</text><path d="M105 335 C150 285 175 300 205 255 C242 205 303 246 335 222" fill="none" stroke="#244c34" stroke-width="10" stroke-linecap="round"/><circle cx="242" cy="250" r="15" fill="#d83228" stroke="#fff" stroke-width="6"/><text x="96" y="365" font-size="18" font-family="Inter,Arial" fill="#6d5d4a">Calpi · Riobamba · Chimborazo</text></g><g filter="url(#s)"><rect x="442" y="180" width="315" height="215" rx="28" fill="url(#card)"/><text x="467" y="230" font-size="22" font-weight="800" font-family="Inter,Arial" fill="#244c34">Arqueología Puruhá</text><path d="M505 325 h160 l-26 30 h-108z" fill="#8b5b3c"/><circle cx="570" cy="286" r="36" fill="#b89468"/><path d="M540 285 h60M570 255 v60" stroke="#3a2a1b" stroke-width="6" opacity=".45"/><text x="467" y="365" font-size="18" font-family="Inter,Arial" fill="#6d5d4a">Pailacucha · restos · memoria</text></g><g filter="url(#s)"><rect x="815" y="180" width="315" height="215" rx="28" fill="url(#card)"/><text x="840" y="230" font-size="22" font-weight="800" font-family="Inter,Arial" fill="#244c34">Centro de Tradiciones</text><path d="M870 330 h205 v-75 h-205z" fill="#9a6039"/><path d="M850 255 l125-70 125 70z" fill="#5e3822"/><rect x="954" y="288" width="45" height="42" fill="#e8cfa8"/><text x="840" y="365" font-size="18" font-family="Inter,Arial" fill="#6d5d4a">Carnaval · Finados · Fin de Año</text></g><g filter="url(#s)"><rect x="70" y="455" width="315" height="215" rx="28" fill="url(#card)"/><text x="95" y="505" font-size="22" font-weight="800" font-family="Inter,Arial" fill="#244c34">Fiesta de San Pedro</text><circle cx="165" cy="570" r="43" fill="#d5a73d"/><path d="M230 540 q65 45 0 90" fill="none" stroke="#a8552c" stroke-width="14" stroke-linecap="round"/><path d="M145 620 q85-70 170 0" fill="none" stroke="#244c34" stroke-width="10" stroke-linecap="round"/><text x="95" y="640" font-size="18" font-family="Inter,Arial" fill="#6d5d4a">Música · comunidad · memoria festiva</text></g><g filter="url(#s)"><rect x="442" y="455" width="315" height="215" rx="28" fill="url(#card)"/><text x="467" y="505" font-size="22" font-weight="800" font-family="Inter,Arial" fill="#244c34">Fanesca</text><ellipse cx="598" cy="585" rx="95" ry="50" fill="#d5a73d"/><circle cx="565" cy="572" r="13" fill="#6d8a52"/><circle cx="605" cy="606" r="11" fill="#a8552c"/><path d="M525 555 q73 42 145 0" fill="none" stroke="#fff8e9" stroke-width="12" opacity=".7"/><text x="467" y="640" font-size="18" font-family="Inter,Arial" fill="#6d5d4a">12 granos · Semana Santa · identidad</text></g><g filter="url(#s)"><rect x="815" y="455" width="315" height="215" rx="28" fill="url(#card)"/><text x="840" y="505" font-size="22" font-weight="800" font-family="Inter,Arial" fill="#244c34">Voces locales</text><circle cx="900" cy="570" r="32" fill="#244c34"/><circle cx="974" cy="570" r="32" fill="#a8552c"/><circle cx="1048" cy="570" r="32" fill="#d5a73d"/><path d="M870 622 h205" stroke="#244c34" stroke-width="12" stroke-linecap="round" opacity=".65"/><text x="840" y="640" font-size="18" font-family="Inter,Arial" fill="#6d5d4a">Entrevistas · oralidad · aprender haciendo</text></g></svg>